# xmcd
#
# Track frame offsets: 
#        150
#        14615
#        28605
#        44695
#        59810
#        75710
#        89650
#        104382
#        116575
#        129115
#        142862
#        157280
#        171737
#        185197
#        198890
#        213412
#        226577
#        239902
#        254392
#        267992
#        281242
#        294812
#        308677
#        322405
#        335482
#
# Disc length: 4659 seconds
#
# Revision: 2
# Processed by: cddbd v1.5.2PL0 Copyright (c) Steve Scherf et al.
# Submitted via: ExactAudioCopyFreeDBPlugin 1.0
#
DISCID=8b123119
DTITLE=St. Louis Jimmy Oden - Complete Recorded Works Vol. 1 (1932-44)
DYEAR=1994
DGENRE=Blues
TTITLE0=I Have Made Up My Mind
TTITLE1=Sitting Down Thinking Blues
TTITLE2=Patrol Wagon Blues
TTITLE3=Warning Spirit Blues
TTITLE4=My Dream Blues
TTITLE5=Six Feet in the Ground
TTITLE6=Pipe Layin' Blues
TTITLE7=Some Sweet Day
TTITLE8=Silk Worm Blues
TTITLE9=The Road to Ruin
TTITLE10=Thick and Thin
TTITLE11=Monkey Face Blues
TTITLE12=Come Day Go Day
TTITLE13=Lost Ball Blues
TTITLE14=Going Down Slow
TTITLE15=Old Vets Blues
TTITLE16=St. Louis Woman Blues
TTITLE17=Poor Boy Blues
TTITLE18=Back on My Feet Again
TTITLE19=Nothing but Blues
TTITLE20=Soon Forget You
TTITLE21=Can't Stand Your Evil Ways
TTITLE22=Strange Woman Blues
TTITLE23=One More Break
TTITLE24=My Story Blues
EXTD=Complete Recorded Works 1932-1955 in Chronological Order -  Volum
EXTD=e 1 (September 22, 1932 to December 14, 1944]\nDocument Records D
EXTD=OCD-5234, Vienna, Austria
EXTT0=
EXTT1=
EXTT2=
EXTT3=
EXTT4=
EXTT5=
EXTT6=
EXTT7=
EXTT8=
EXTT9=
EXTT10=
EXTT11=
EXTT12=
EXTT13=
EXTT14=
EXTT15=
EXTT16=
EXTT17=
EXTT18=
EXTT19=
EXTT20=
EXTT21=
EXTT22=
EXTT23=
EXTT24=
PLAYORDER=
